<svg width="28" height="28" viewBox="0 0 28 28" fill="none" xmlns="http://www.w3.org/2000/svg">
<path d="M8.1748 14C8.1748 13.7679 8.26699 13.5453 8.43109 13.3813C8.59518 13.2172 8.81774 13.125 9.0498 13.125H13.125V9.0498C13.125 8.81774 13.2172 8.59518 13.3813 8.43109C13.5453 8.26699 13.7679 8.1748 14 8.1748C14.232 8.1748 14.4546 8.26699 14.6187 8.43109C14.7828 8.59518 14.875 8.81774 14.875 9.0498V13.125H18.9501C19.1822 13.125 19.4048 13.2172 19.5689 13.3813C19.733 13.5453 19.8251 13.7679 19.8251 14C19.8251 14.232 19.733 14.4546 19.5689 14.6187C19.4048 14.7828 19.1822 14.875 18.9501 14.875H14.875V18.9501C14.875 19.1822 14.7828 19.4048 14.6187 19.5689C14.4546 19.733 14.232 19.8251 14 19.8251C13.7679 19.8251 13.5453 19.733 13.3813 19.5689C13.2172 19.4048 13.125 19.1822 13.125 18.9501V14.875H9.0498C8.81774 14.875 8.59518 14.7828 8.43109 14.6187C8.26699 14.4546 8.1748 14.232 8.1748 14Z" fill="#61A0FF"/>
<path fill-rule="evenodd" clip-rule="evenodd" d="M8.5366 4.39714C12.1678 3.99457 15.8324 3.99457 19.4636 4.39714C21.5951 4.63514 23.3159 6.31397 23.5656 8.45714C23.9973 12.1403 23.9973 15.8608 23.5656 19.544C23.3148 21.6871 21.5939 23.3648 19.4636 23.604C15.8324 24.0065 12.1678 24.0065 8.5366 23.604C6.4051 23.3648 4.68427 21.6871 4.4346 19.544C4.00487 15.8609 4.00487 12.1403 4.4346 8.45714C4.68427 6.31397 6.40627 4.63514 8.5366 4.39714ZM19.2699 6.13547C15.7674 5.74724 12.2328 5.74724 8.73027 6.13547C8.08189 6.20741 7.47669 6.49583 7.01245 6.95414C6.5482 7.41246 6.25203 8.0139 6.17177 8.66131C5.75682 12.2091 5.75682 15.7932 6.17177 19.341C6.25227 19.9882 6.54855 20.5893 7.01278 21.0474C7.477 21.5055 8.08206 21.7938 8.73027 21.8656C12.2034 22.253 15.7968 22.253 19.2699 21.8656C19.9179 21.7935 20.5227 21.5052 20.9867 21.0471C21.4507 20.589 21.7468 19.988 21.8273 19.341C22.2422 15.7932 22.2422 12.2091 21.8273 8.66131C21.7466 8.0145 21.4504 7.41373 20.9864 6.9559C20.5224 6.49807 19.9178 6.20988 19.2699 6.13781" fill="#61A0FF"/>
</svg>
