<svg width="24" height="24" viewBox="0 0 24 24" fill="none" xmlns="http://www.w3.org/2000/svg">
<path fill-rule="evenodd" clip-rule="evenodd" d="M3.25 11.375C3.25 11.0435 3.3817 10.7255 3.61612 10.4911C3.85054 10.2567 4.16848 10.125 4.5 10.125H5.75C6.08152 10.125 6.39946 10.2567 6.63388 10.4911C6.8683 10.7255 7 11.0435 7 11.375V12.625C7 12.9565 6.8683 13.2745 6.63388 13.5089C6.39946 13.7433 6.08152 13.875 5.75 13.875H4.5C4.16848 13.875 3.85054 13.7433 3.61612 13.5089C3.3817 13.2745 3.25 12.9565 3.25 12.625V11.375ZM5.75 11.375V12.625H4.5V11.375H5.75ZM9.5 10.125C9.16848 10.125 8.85054 10.2567 8.61612 10.4911C8.3817 10.7255 8.25 11.0435 8.25 11.375V12.625C8.25 12.9565 8.3817 13.2745 8.61612 13.5089C8.85054 13.7433 9.16848 13.875 9.5 13.875H10.75C11.0815 13.875 11.3995 13.7433 11.6339 13.5089C11.8683 13.2745 12 12.9565 12 12.625V11.375C12 11.0435 11.8683 10.7255 11.6339 10.4911C11.3995 10.2567 11.0815 10.125 10.75 10.125H9.5ZM10.75 11.375H9.5V12.625H10.75V11.375ZM13.25 11.375C13.25 11.0435 13.3817 10.7255 13.6161 10.4911C13.8505 10.2567 14.1685 10.125 14.5 10.125H15.75C16.0815 10.125 16.3995 10.2567 16.6339 10.4911C16.8683 10.7255 17 11.0435 17 11.375V12.625C17 12.9565 16.8683 13.2745 16.6339 13.5089C16.3995 13.7433 16.0815 13.875 15.75 13.875H14.5C14.1685 13.875 13.8505 13.7433 13.6161 13.5089C13.3817 13.2745 13.25 12.9565 13.25 12.625V11.375ZM14.5 11.375H15.75V12.625H14.5V11.375ZM4.5 15.125C4.16848 15.125 3.85054 15.2567 3.61612 15.4911C3.3817 15.7255 3.25 16.0435 3.25 16.375V17.625C3.25 17.9565 3.3817 18.2745 3.61612 18.5089C3.85054 18.7433 4.16848 18.875 4.5 18.875H5.75C6.08152 18.875 6.39946 18.7433 6.63388 18.5089C6.8683 18.2745 7 17.9565 7 17.625V16.375C7 16.0435 6.8683 15.7255 6.63388 15.4911C6.39946 15.2567 6.08152 15.125 5.75 15.125H4.5ZM4.5 16.375V17.625H5.75V16.375H4.5ZM8.25 16.375C8.25 16.0435 8.3817 15.7255 8.61612 15.4911C8.85054 15.2567 9.16848 15.125 9.5 15.125H10.75C11.0815 15.125 11.3995 15.2567 11.6339 15.4911C11.8683 15.7255 12 16.0435 12 16.375V17.625C12 17.9565 11.8683 18.2745 11.6339 18.5089C11.3995 18.7433 11.0815 18.875 10.75 18.875H9.5C9.16848 18.875 8.85054 18.7433 8.61612 18.5089C8.3817 18.2745 8.25 17.9565 8.25 17.625V16.375ZM9.5 16.375H10.75V17.625H9.5V16.375Z" fill="#61A0FF" fill-opacity="0.8"/>
<path d="M18.875 16.6875C19.0408 16.6875 19.1997 16.7533 19.3169 16.8706C19.4342 16.9878 19.5 17.1467 19.5 17.3125V18.6162L19.9419 19.0581C20.0557 19.176 20.1187 19.3339 20.1173 19.4978C20.1159 19.6616 20.0501 19.8184 19.9343 19.9343C19.8184 20.0501 19.6616 20.1159 19.4978 20.1173C19.3339 20.1187 19.176 20.0557 19.0581 19.9419L18.25 19.1338V17.3125C18.25 17.1467 18.3158 16.9878 18.4331 16.8706C18.5503 16.7533 18.7092 16.6875 18.875 16.6875Z" fill="#61A0FF" fill-opacity="0.8"/>
<path fill-rule="evenodd" clip-rule="evenodd" d="M4.5 1.375C4.5 1.20924 4.56585 1.05027 4.68306 0.933058C4.80027 0.815848 4.95924 0.75 5.125 0.75C5.29076 0.75 5.44973 0.815848 5.56694 0.933058C5.68415 1.05027 5.75 1.20924 5.75 1.375V4.5C5.75 4.66576 5.68415 4.82473 5.56694 4.94194C5.44973 5.05915 5.29076 5.125 5.125 5.125C4.95924 5.125 4.80027 5.05915 4.68306 4.94194C4.56585 4.82473 4.5 4.66576 4.5 4.5V3.875H2.625C2.45924 3.875 2.30027 3.94085 2.18306 4.05806C2.06585 4.17527 2 4.33424 2 4.5V7H18.25V4.5C18.25 4.33424 18.1842 4.17527 18.0669 4.05806C17.9497 3.94085 17.7908 3.875 17.625 3.875H15.75V2.625H17.625C18.1223 2.625 18.5992 2.82254 18.9508 3.17417C19.3025 3.52581 19.5 4.00272 19.5 4.5V14.5437C20.5947 14.702 21.5889 15.2689 22.2825 16.1305C22.9761 16.9921 23.3177 18.0844 23.2385 19.1877C23.1593 20.2909 22.6652 21.3233 21.8556 22.077C21.0461 22.8306 19.9811 23.2498 18.875 23.25C18.1696 23.2506 17.4745 23.0803 16.8492 22.7538C16.224 22.4273 15.687 21.9542 15.2844 21.375H2.625C2.12772 21.375 1.65081 21.1775 1.29917 20.8258C0.947544 20.4742 0.75 19.9973 0.75 19.5V4.5C0.75 4.00272 0.947544 3.52581 1.29917 3.17417C1.65081 2.82254 2.12772 2.625 2.625 2.625H4.5V1.375ZM14.5 18.875C14.4997 17.8228 14.8787 16.8057 15.5674 16.0102C16.2562 15.2147 17.2086 14.6941 18.25 14.5437V8.25H2V19.5C2 19.6658 2.06585 19.8247 2.18306 19.9419C2.30027 20.0592 2.45924 20.125 2.625 20.125H14.6813C14.5607 19.7193 14.4996 19.2982 14.5 18.875ZM18.875 22C19.7038 22 20.4987 21.6708 21.0847 21.0847C21.6708 20.4987 22 19.7038 22 18.875C22 18.0462 21.6708 17.2513 21.0847 16.6653C20.4987 16.0792 19.7038 15.75 18.875 15.75C18.0462 15.75 17.2513 16.0792 16.6653 16.6653C16.0792 17.2513 15.75 18.0462 15.75 18.875C15.75 19.7038 16.0792 20.4987 16.6653 21.0847C17.2513 21.6708 18.0462 22 18.875 22Z" fill="#61A0FF" fill-opacity="0.8"/>
<path d="M13.875 5.125C13.7092 5.125 13.5503 5.05915 13.4331 4.94194C13.3158 4.82473 13.25 4.66576 13.25 4.5V3.875H7V2.625H13.25V1.375C13.25 1.20924 13.3158 1.05027 13.4331 0.933058C13.5503 0.815848 13.7092 0.75 13.875 0.75C14.0408 0.75 14.1997 0.815848 14.3169 0.933058C14.4342 1.05027 14.5 1.20924 14.5 1.375V4.5C14.5 4.66576 14.4342 4.82473 14.3169 4.94194C14.1997 5.05915 14.0408 5.125 13.875 5.125Z" fill="#61A0FF" fill-opacity="0.8"/>
</svg>
