<svg width="27" height="33" viewBox="0 0 27 33" fill="none" xmlns="http://www.w3.org/2000/svg">
<path d="M7.6665 4.83317V1.9165M19.3332 4.83317V1.9165M13.4998 31.0832C7.6563 31.0832 4.73525 31.0832 2.91963 29.1611C1.104 27.239 1.104 24.1444 1.104 17.9582C1.104 11.7719 1.104 8.67734 2.91963 6.75525C4.73525 4.83317 7.6563 4.83317 13.4998 4.83317C19.3434 4.83317 22.2644 4.83317 24.08 6.75525C25.8957 8.67734 25.8957 11.7719 25.8957 17.9582C25.8957 24.1444 25.8957 27.239 24.08 29.1611C22.2644 31.0832 19.3434 31.0832 13.4998 31.0832Z" stroke="#666666" stroke-opacity="0.5" stroke-width="2.1875" stroke-linecap="round" stroke-linejoin="round"/>
<path d="M16.443 12.8439C16.443 13.6175 16.1357 14.3593 15.5887 14.9063C15.0417 15.4533 14.2999 15.7606 13.5263 15.7606C12.7528 15.7606 12.0109 15.4533 11.4639 14.9063C10.9169 14.3593 10.6097 13.6175 10.6097 12.8439C10.6097 12.0704 10.9169 11.3285 11.4639 10.7815C12.0109 10.2345 12.7528 9.92725 13.5263 9.92725C14.2999 9.92725 15.0417 10.2345 15.5887 10.7815C16.1357 11.3285 16.443 12.0704 16.443 12.8439ZM7.75861 23.3775C9.30153 21.0004 11.753 20.1108 13.5263 20.1122C15.2997 20.1137 17.6797 21.0018 19.2226 23.3789C19.3217 23.532 19.3494 23.7202 19.259 23.8806C18.8988 24.5208 17.7774 25.791 16.9694 25.877C16.039 25.9747 13.6051 25.9893 13.5278 25.9893C13.4505 25.9893 10.9436 25.9747 10.0132 25.877C9.20237 25.7895 8.08236 24.5208 7.7207 23.8791C7.63174 23.7202 7.65945 23.532 7.75861 23.3775Z" stroke="#666666" stroke-opacity="0.5" stroke-width="2.1875" stroke-linecap="round" stroke-linejoin="round"/>
</svg>
