<svg width="16" height="17" viewBox="0 0 16 17" fill="none" xmlns="http://www.w3.org/2000/svg">
<path fill-rule="evenodd" clip-rule="evenodd" d="M14.95 3.86564L8.637 9.09364C8.45761 9.24227 8.23196 9.3236 7.999 9.3236C7.76604 9.3236 7.54039 9.24227 7.361 9.09364L1.051 3.86564C1.01714 3.96755 0.999922 4.07425 1 4.18164V12.1816C1 12.4469 1.10536 12.7012 1.29289 12.8887C1.48043 13.0763 1.73478 13.1816 2 13.1816H14C14.2652 13.1816 14.5196 13.0763 14.7071 12.8887C14.8946 12.7012 15 12.4469 15 12.1816V4.18164C15.0004 4.07431 14.9835 3.96761 14.95 3.86564ZM2 2.18164H14C14.5304 2.18164 15.0391 2.39235 15.4142 2.76743C15.7893 3.1425 16 3.65121 16 4.18164V12.1816C16 12.7121 15.7893 13.2208 15.4142 13.5959C15.0391 13.9709 14.5304 14.1816 14 14.1816H2C1.46957 14.1816 0.960859 13.9709 0.585786 13.5959C0.210714 13.2208 0 12.7121 0 12.1816V4.18164C0 3.65121 0.210714 3.1425 0.585786 2.76743C0.960859 2.39235 1.46957 2.18164 2 2.18164ZM1.79 3.18164L7.366 7.78464C7.54459 7.93215 7.76884 8.01308 8.00046 8.01363C8.23209 8.01418 8.45672 7.9343 8.636 7.78764L14.268 3.18164H1.79Z" fill="#61A0FF"/>
</svg>
