<svg width="35" height="35" viewBox="0 0 35 35" fill="none" xmlns="http://www.w3.org/2000/svg">
<path d="M30.625 6.5625C30.625 5.98234 30.3945 5.42594 29.9843 5.0157C29.5741 4.60547 29.0177 4.375 28.4375 4.375H24.0625V2.1875H21.875V4.375H13.125V2.1875H10.9375V4.375H6.5625C5.98234 4.375 5.42594 4.60547 5.0157 5.0157C4.60547 5.42594 4.375 5.98234 4.375 6.5625V28.4375C4.375 29.0177 4.60547 29.5741 5.0157 29.9843C5.42594 30.3945 5.98234 30.625 6.5625 30.625H10.9375V28.4375H6.5625V6.5625H10.9375V8.75H13.125V6.5625H21.875V8.75H24.0625V6.5625H28.4375V13.125H30.625V6.5625Z" fill="#666666" fill-opacity="0.5"/>
<path d="M22.9688 16.4062L25.7567 21.8072L31.7188 22.6723L27.3438 26.8767L28.4375 32.8125L22.9688 30.0103L17.5 32.8125L18.5938 26.8767L14.2188 22.6723L20.3438 21.8072L22.9688 16.4062Z" fill="#666666" fill-opacity="0.5"/>
</svg>
