<svg width="27" height="29" viewBox="0 0 27 29" fill="none" xmlns="http://www.w3.org/2000/svg">
<path d="M14.7495 2.92085L23.3041 9.94564C23.7853 10.3394 24.0726 10.9461 24.0726 11.5936V24.4313C24.0726 25.6183 23.1422 26.5313 22.0557 26.5313H18.2393V19.6042C18.2393 18.5406 17.8167 17.5205 17.0646 16.7684C16.3126 16.0163 15.2925 15.5938 14.2289 15.5938H12.7705C11.7069 15.5938 10.6868 16.0163 9.93473 16.7684C9.18263 17.5205 8.76011 18.5406 8.76011 19.6042V26.5313H4.94365C3.85719 26.5313 2.92677 25.6183 2.92677 24.4313V11.595C2.92677 10.9461 3.21406 10.3409 3.69531 9.9471L12.2499 2.91939C12.6009 2.62737 13.0431 2.46749 13.4997 2.46749C13.9563 2.46749 14.3985 2.62883 14.7495 2.92085ZM22.0557 28.7173C24.4037 28.7173 26.2601 26.7704 26.2601 24.4298V11.5936C26.2618 10.9557 26.1221 10.3253 25.851 9.74785C25.5799 9.1704 25.1842 8.66021 24.6924 8.25397L16.1393 1.22918C15.397 0.615813 14.4641 0.280273 13.5011 0.280273C12.5382 0.280273 11.6053 0.615813 10.863 1.22918L2.30698 8.25543C1.81515 8.66167 1.41946 9.17186 1.14839 9.74931C0.877312 10.3268 0.737591 10.9571 0.739273 11.595V24.4313C0.739273 26.7719 2.59573 28.7188 4.94365 28.7188L22.0557 28.7173Z" fill="#666666" fill-opacity="0.5"/>
</svg>
