<svg width="31" height="31" viewBox="0 0 31 31" fill="none" xmlns="http://www.w3.org/2000/svg">
<path d="M4.91699 0.75H25.5003C26.7601 0.75 27.9683 1.25045 28.8591 2.14124C29.7499 3.03204 30.2503 4.24022 30.2503 5.5V26.0833C30.2503 27.3431 29.7499 28.5513 28.8591 29.4421C27.9683 30.3329 26.7601 30.8333 25.5003 30.8333H4.91699C3.65721 30.8333 2.44903 30.3329 1.55824 29.4421C0.667437 28.5513 0.166992 27.3431 0.166992 26.0833V5.5C0.166992 4.24022 0.667437 3.03204 1.55824 2.14124C2.44903 1.25045 3.65721 0.75 4.91699 0.75ZM4.91699 2.33333C4.07714 2.33333 3.27169 2.66696 2.67782 3.26083C2.08396 3.85469 1.75033 4.66015 1.75033 5.5V23.8508L8.54283 17.0425L12.5012 21.0008L20.4178 13.0842L28.667 21.3333V5.5C28.667 4.66015 28.3334 3.85469 27.7395 3.26083C27.1456 2.66696 26.3402 2.33333 25.5003 2.33333H4.91699ZM12.5012 23.2492L8.54283 19.2908L1.75033 26.0833C1.75033 26.9232 2.08396 27.7286 2.67782 28.3225C3.27169 28.9164 4.07714 29.25 4.91699 29.25H25.5003C26.3402 29.25 27.1456 28.9164 27.7395 28.3225C28.3334 27.7286 28.667 26.9232 28.667 26.0833V23.5658L20.4178 15.3325L12.5012 23.2492ZM8.87533 5.5C9.92514 5.5 10.932 5.91704 11.6743 6.65937C12.4166 7.4017 12.8337 8.40852 12.8337 9.45833C12.8337 10.5081 12.4166 11.515 11.6743 12.2573C10.932 12.9996 9.92514 13.4167 8.87533 13.4167C7.82551 13.4167 6.81869 12.9996 6.07636 12.2573C5.33403 11.515 4.91699 10.5081 4.91699 9.45833C4.91699 8.40852 5.33403 7.4017 6.07636 6.65937C6.81869 5.91704 7.82551 5.5 8.87533 5.5ZM8.87533 7.08333C8.24544 7.08333 7.64135 7.33356 7.19595 7.77895C6.75055 8.22435 6.50033 8.82844 6.50033 9.45833C6.50033 10.0882 6.75055 10.6923 7.19595 11.1377C7.64135 11.5831 8.24544 11.8333 8.87533 11.8333C9.50521 11.8333 10.1093 11.5831 10.5547 11.1377C11.0001 10.6923 11.2503 10.0882 11.2503 9.45833C11.2503 8.82844 11.0001 8.22435 10.5547 7.77895C10.1093 7.33356 9.50521 7.08333 8.87533 7.08333Z" fill="#666666"/>
</svg>
