<svg width="20" height="20" viewBox="0 0 20 20" fill="none" xmlns="http://www.w3.org/2000/svg">
<g clip-path="url(#clip0_1_2228)">
<path d="M9.9375 0.625C5.875 0.625 2.40625 3.25 1.125 6.875H18.8125C17.5 3.25 14.0312 0.625 9.9375 0.625Z" fill="#F2B200"/>
<path d="M9.9375 19.375C14.0312 19.375 17.5 16.7812 18.7812 13.125H1.125C2.40625 16.7812 5.875 19.375 9.9375 19.375Z" fill="#83BF4F"/>
<path d="M1.125 6.875C0.78125 7.84375 0.59375 8.90625 0.59375 10C0.59375 11.0938 0.78125 12.1562 1.125 13.125H18.8125C19.1562 12.1562 19.3438 11.0938 19.3438 10C19.3438 8.90625 19.1562 7.84375 18.8125 6.875H1.125Z" fill="white"/>
<path d="M9.9375 12.5C11.3182 12.5 12.4375 11.3807 12.4375 10C12.4375 8.61929 11.3182 7.5 9.9375 7.5C8.55679 7.5 7.4375 8.61929 7.4375 10C7.4375 11.3807 8.55679 12.5 9.9375 12.5Z" fill="#428BC1"/>
<path d="M9.9375 12.1875C11.1456 12.1875 12.125 11.2081 12.125 10C12.125 8.79188 11.1456 7.8125 9.9375 7.8125C8.72938 7.8125 7.75 8.79188 7.75 10C7.75 11.2081 8.72938 12.1875 9.9375 12.1875Z" fill="white"/>
<path d="M9.125 8.125C9.21129 8.125 9.28125 8.05504 9.28125 7.96875C9.28125 7.88246 9.21129 7.8125 9.125 7.8125C9.03871 7.8125 8.96875 7.88246 8.96875 7.96875C8.96875 8.05504 9.03871 8.125 9.125 8.125Z" fill="#428BC1"/>
<path d="M8.625 8.40625C8.71129 8.40625 8.78125 8.33629 8.78125 8.25C8.78125 8.16371 8.71129 8.09375 8.625 8.09375C8.53871 8.09375 8.46875 8.16371 8.46875 8.25C8.46875 8.33629 8.53871 8.40625 8.625 8.40625Z" fill="#428BC1"/>
<path d="M8.21875 8.8125C8.30504 8.8125 8.375 8.74254 8.375 8.65625C8.375 8.56996 8.30504 8.5 8.21875 8.5C8.13246 8.5 8.0625 8.56996 8.0625 8.65625C8.0625 8.74254 8.13246 8.8125 8.21875 8.8125Z" fill="#428BC1"/>
<path d="M7.9375 9.3125C8.02379 9.3125 8.09375 9.24254 8.09375 9.15625C8.09375 9.06996 8.02379 9 7.9375 9C7.85121 9 7.78125 9.06996 7.78125 9.15625C7.78125 9.24254 7.85121 9.3125 7.9375 9.3125Z" fill="#428BC1"/>
<path d="M7.78125 9.875C7.86754 9.875 7.9375 9.80504 7.9375 9.71875C7.9375 9.63246 7.86754 9.5625 7.78125 9.5625C7.69496 9.5625 7.625 9.63246 7.625 9.71875C7.625 9.80504 7.69496 9.875 7.78125 9.875Z" fill="#428BC1"/>
<path d="M7.78125 10.4375C7.86754 10.4375 7.9375 10.3675 7.9375 10.2812C7.9375 10.195 7.86754 10.125 7.78125 10.125C7.69496 10.125 7.625 10.195 7.625 10.2812C7.625 10.3675 7.69496 10.4375 7.78125 10.4375Z" fill="#428BC1"/>
<path d="M7.9375 11C8.02379 11 8.09375 10.93 8.09375 10.8438C8.09375 10.7575 8.02379 10.6875 7.9375 10.6875C7.85121 10.6875 7.78125 10.7575 7.78125 10.8438C7.78125 10.93 7.85121 11 7.9375 11Z" fill="#428BC1"/>
<path d="M8.21875 11.5C8.30504 11.5 8.375 11.43 8.375 11.3438C8.375 11.2575 8.30504 11.1875 8.21875 11.1875C8.13246 11.1875 8.0625 11.2575 8.0625 11.3438C8.0625 11.43 8.13246 11.5 8.21875 11.5Z" fill="#428BC1"/>
<path d="M8.625 11.9062C8.71129 11.9062 8.78125 11.8363 8.78125 11.75C8.78125 11.6637 8.71129 11.5938 8.625 11.5938C8.53871 11.5938 8.46875 11.6637 8.46875 11.75C8.46875 11.8363 8.53871 11.9062 8.625 11.9062Z" fill="#428BC1"/>
<path d="M9.125 12.1875C9.21129 12.1875 9.28125 12.1175 9.28125 12.0312C9.28125 11.945 9.21129 11.875 9.125 11.875C9.03871 11.875 8.96875 11.945 8.96875 12.0312C8.96875 12.1175 9.03871 12.1875 9.125 12.1875Z" fill="#428BC1"/>
<path d="M9.65625 12.3125C9.74254 12.3125 9.8125 12.2425 9.8125 12.1562C9.8125 12.07 9.74254 12 9.65625 12C9.56996 12 9.5 12.07 9.5 12.1562C9.5 12.2425 9.56996 12.3125 9.65625 12.3125Z" fill="#428BC1"/>
<path d="M10.0938 12.1875C10.0938 12.0937 10.1563 12.0312 10.2188 12C10.3125 12 10.375 12.0625 10.4062 12.125C10.4062 12.2187 10.3438 12.2812 10.2813 12.3125C10.1563 12.3438 10.0938 12.2812 10.0938 12.1875Z" fill="#428BC1"/>
<path d="M10.7812 12.1875C10.8675 12.1875 10.9375 12.1175 10.9375 12.0312C10.9375 11.945 10.8675 11.875 10.7812 11.875C10.695 11.875 10.625 11.945 10.625 12.0312C10.625 12.1175 10.695 12.1875 10.7812 12.1875Z" fill="#428BC1"/>
<path d="M11.2812 11.9062C11.3675 11.9062 11.4375 11.8363 11.4375 11.75C11.4375 11.6637 11.3675 11.5938 11.2812 11.5938C11.195 11.5938 11.125 11.6637 11.125 11.75C11.125 11.8363 11.195 11.9062 11.2812 11.9062Z" fill="#428BC1"/>
<path d="M11.6875 11.5C11.7738 11.5 11.8438 11.43 11.8438 11.3438C11.8438 11.2575 11.7738 11.1875 11.6875 11.1875C11.6012 11.1875 11.5312 11.2575 11.5312 11.3438C11.5312 11.43 11.6012 11.5 11.6875 11.5Z" fill="#428BC1"/>
<path d="M11.9688 11C12.055 11 12.125 10.93 12.125 10.8438C12.125 10.7575 12.055 10.6875 11.9688 10.6875C11.8825 10.6875 11.8125 10.7575 11.8125 10.8438C11.8125 10.93 11.8825 11 11.9688 11Z" fill="#428BC1"/>
<path d="M12.125 10.4375C12.2113 10.4375 12.2812 10.3675 12.2812 10.2812C12.2812 10.195 12.2113 10.125 12.125 10.125C12.0387 10.125 11.9688 10.195 11.9688 10.2812C11.9688 10.3675 12.0387 10.4375 12.125 10.4375Z" fill="#428BC1"/>
<path d="M12.125 9.875C12.0312 9.875 11.9688 9.8125 11.9375 9.75C11.9375 9.65625 12 9.59375 12.0625 9.5625C12.1562 9.5625 12.2188 9.625 12.25 9.6875C12.2812 9.78125 12.2187 9.84375 12.125 9.875Z" fill="#428BC1"/>
<path d="M11.9688 9.3125C12.055 9.3125 12.125 9.24254 12.125 9.15625C12.125 9.06996 12.055 9 11.9688 9C11.8825 9 11.8125 9.06996 11.8125 9.15625C11.8125 9.24254 11.8825 9.3125 11.9688 9.3125Z" fill="#428BC1"/>
<path d="M11.6875 8.8125C11.7738 8.8125 11.8438 8.74254 11.8438 8.65625C11.8438 8.56996 11.7738 8.5 11.6875 8.5C11.6012 8.5 11.5312 8.56996 11.5312 8.65625C11.5312 8.74254 11.6012 8.8125 11.6875 8.8125Z" fill="#428BC1"/>
<path d="M11.2812 8.40625C11.3675 8.40625 11.4375 8.33629 11.4375 8.25C11.4375 8.16371 11.3675 8.09375 11.2812 8.09375C11.195 8.09375 11.125 8.16371 11.125 8.25C11.125 8.33629 11.195 8.40625 11.2812 8.40625Z" fill="#428BC1"/>
<path d="M10.9375 8.03108C10.9063 8.12483 10.8125 8.15608 10.7187 8.12483C10.625 8.09358 10.5938 7.99983 10.625 7.90608C10.6563 7.81233 10.75 7.78108 10.8438 7.81233C10.9375 7.87483 10.9688 7.96858 10.9375 8.03108ZM10.375 7.84358C10.375 7.93733 10.2812 7.99983 10.1875 7.96858C10.0937 7.96858 10.0313 7.87483 10.0625 7.78108C10.0625 7.68733 10.1562 7.62483 10.25 7.65608C10.3437 7.68733 10.4063 7.78108 10.375 7.84358ZM9.8125 7.81233C9.8125 7.90608 9.75 7.96858 9.6875 7.99983C9.59375 7.99983 9.53125 7.93733 9.5 7.87483C9.5 7.78108 9.5625 7.71858 9.625 7.68733C9.71875 7.65608 9.8125 7.71858 9.8125 7.81233Z" fill="#428BC1"/>
<path d="M9.9375 10.4688C10.1964 10.4688 10.4062 10.2589 10.4062 10C10.4062 9.74112 10.1964 9.53125 9.9375 9.53125C9.67862 9.53125 9.46875 9.74112 9.46875 10C9.46875 10.2589 9.67862 10.4688 9.9375 10.4688Z" fill="#428BC1"/>
<path d="M9.9375 7.8125L9.875 9.15625L9.9375 10L10.0312 9.15625L9.9375 7.8125ZM9.375 7.875L9.65625 9.21875L9.9375 10L9.8125 9.15625L9.375 7.875Z" fill="#428BC1"/>
<path d="M8.84375 8.09375L9.46875 9.3125L9.9375 10L9.59375 9.21875L8.84375 8.09375ZM8.40625 8.4375L9.3125 9.46875L9.9375 10L9.40625 9.34375L8.40625 8.4375Z" fill="#428BC1"/>
<path d="M8.0625 8.90625L9.1875 9.65625L9.9375 10L9.25 9.5L8.0625 8.90625Z" fill="#428BC1"/>
<path d="M7.84375 9.4375L9.125 9.84375L9.9375 10L9.15625 9.71875L7.84375 9.4375ZM7.75 10L9.125 10.0625L9.9375 10L9.125 9.9375L7.75 10Z" fill="#428BC1"/>
<path d="M7.84375 10.5625L9.15625 10.2813L9.9375 10L9.125 10.1562L7.84375 10.5625ZM8.0625 11.0938L9.25 10.5L9.9375 10L9.1875 10.3437L8.0625 11.0938Z" fill="#428BC1"/>
<path d="M8.40625 11.5313L9.40625 10.6562L9.9375 10L9.3125 10.5313L8.40625 11.5313ZM8.84375 11.9062L9.59375 10.75L9.9375 10L9.46875 10.6875L8.84375 11.9062Z" fill="#428BC1"/>
<path d="M9.375 12.125L9.8125 10.8438L9.9375 10L9.65625 10.7812L9.375 12.125ZM9.9375 12.1875L10.0312 10.8438L9.9375 10L9.875 10.8438L9.9375 12.1875ZM10.5 12.125L10.25 10.7812L9.9375 10L10.0937 10.8438L10.5 12.125Z" fill="#428BC1"/>
<path d="M11.0312 11.9062L10.4375 10.6875L9.9375 10L10.3125 10.7812L11.0312 11.9062ZM11.5 11.5313L10.5938 10.5313L9.9375 10L10.5 10.6562L11.5 11.5313Z" fill="#428BC1"/>
<path d="M11.8438 11.0937L10.7188 10.3437L9.9375 10L10.625 10.5L11.8438 11.0937ZM12.0625 10.5625L10.7813 10.1562L9.9375 10L10.75 10.2813L12.0625 10.5625ZM12.125 10L10.7813 9.90625L9.9375 10L10.7813 10.0625L12.125 10ZM12.0625 9.4375L10.75 9.71875L9.9375 10L10.7813 9.84375L12.0625 9.4375Z" fill="#428BC1"/>
<path d="M11.8438 8.90625L10.625 9.5L9.9375 10L10.7188 9.65625L11.8438 8.90625ZM11.5 8.46875L10.5 9.34375L9.9375 10L10.5938 9.46875L11.5 8.46875Z" fill="#428BC1"/>
<path d="M11.0312 8.09375L10.3125 9.25L9.9375 10L10.4375 9.3125L11.0312 8.09375Z" fill="#428BC1"/>
<path d="M10.5313 7.875L10.0938 9.15625L9.9375 10L10.25 9.21875L10.5313 7.875Z" fill="#428BC1"/>
</g>
<defs>
<clipPath id="clip0_1_2228">
<rect width="20" height="20" fill="white"/>
</clipPath>
</defs>
</svg>
