<svg width="27" height="27" viewBox="0 0 27 27" fill="none" xmlns="http://www.w3.org/2000/svg">
<path d="M23.543 5.53736C23.543 5.09935 23.369 4.67929 23.0593 4.36958C22.7496 4.05986 22.3295 3.88587 21.8915 3.88587H18.5885V2.23438H16.937V3.88587H10.3311V2.23438H8.67957V3.88587H5.37659C4.93859 3.88587 4.51852 4.05986 4.20881 4.36958C3.89909 4.67929 3.7251 5.09935 3.7251 5.53736V22.0523C3.7251 22.4903 3.89909 22.9103 4.20881 23.22C4.51852 23.5298 4.93859 23.7037 5.37659 23.7037H8.67957V22.0523H5.37659V5.53736H8.67957V7.18885H10.3311V5.53736H16.937V7.18885H18.5885V5.53736H21.8915V10.4918H23.543V5.53736Z" fill="white"/>
<path d="M17.7622 12.9688L19.867 17.0463L24.3682 17.6994L21.0652 20.8736L21.8909 25.3549L17.7622 23.2394L13.6335 25.3549L14.4592 20.8736L11.1562 17.6994L15.7804 17.0463L17.7622 12.9688Z" fill="white"/>
</svg>
