<svg width="21" height="25" viewBox="0 0 21 25" fill="none" xmlns="http://www.w3.org/2000/svg">
<path fill-rule="evenodd" clip-rule="evenodd" d="M16.7804 16.3153C17.0216 16.1947 17.2986 16.1667 17.5589 16.2367C17.8193 16.3067 18.0449 16.4698 18.193 16.6951L18.2569 16.8074L20.4589 21.2114C20.5374 21.3685 20.5773 21.542 20.5751 21.7176C20.5729 21.8932 20.5288 22.0657 20.4464 22.2208C20.3639 22.3759 20.2456 22.5089 20.1012 22.609C19.9569 22.709 19.7907 22.773 19.6166 22.7957L19.4746 22.8045H1.85867C1.68303 22.8046 1.50992 22.7626 1.35381 22.6821C1.19769 22.6017 1.0631 22.485 0.961263 22.3419C0.859428 22.1988 0.79331 22.0334 0.768428 21.8595C0.743546 21.6856 0.760623 21.5083 0.818234 21.3424L0.873283 21.2103L3.07527 16.8063C3.19869 16.5512 3.41572 16.3535 3.68121 16.2544C3.94669 16.1552 4.24018 16.1623 4.5006 16.2741C4.76102 16.3858 4.96832 16.5937 5.07935 16.8545C5.19037 17.1152 5.19659 17.4087 5.09669 17.6739L5.04495 17.7917L3.64008 20.6025H17.6932L16.2883 17.7917C16.1579 17.5306 16.1365 17.2285 16.2288 16.9516C16.3211 16.6748 16.5195 16.4459 16.7804 16.3153ZM10.6666 0.784668C12.7106 0.784668 14.6709 1.59665 16.1163 3.04198C17.5616 4.48732 18.3736 6.44761 18.3736 8.49162C18.3736 11.1142 16.9544 13.2446 15.4857 14.7563C14.6745 15.5804 13.7826 16.321 12.8235 16.9671L12.4128 17.2379L12.0473 17.468L11.8832 17.5671L11.6003 17.7301C11.0189 18.0604 10.3143 18.0604 9.73298 17.7301L9.45002 17.566L9.10871 17.3579L8.92044 17.2379L8.50977 16.9671C7.55066 16.321 6.65879 15.5804 5.84757 14.7563C4.37885 13.2446 2.95967 11.1142 2.95967 8.49162C2.95967 6.44761 3.77165 4.48732 5.21698 3.04198C6.66231 1.59665 8.62261 0.784668 10.6666 0.784668ZM10.6666 2.98665C9.20661 2.98665 7.8064 3.56664 6.77402 4.59902C5.74164 5.6314 5.16165 7.03161 5.16165 8.49162C5.16165 10.2928 6.14154 11.8992 7.4264 13.2215C8.19925 14.0021 9.05334 14.6978 9.9741 15.2969L10.3484 15.5358C10.4644 15.607 10.5705 15.6708 10.6666 15.7274L10.9859 15.5358L11.3591 15.2969C12.2799 14.6978 13.134 14.0021 13.9068 13.2215C15.1917 11.9003 16.1716 10.2928 16.1716 8.49162C16.1716 7.03161 15.5916 5.6314 14.5592 4.59902C13.5268 3.56664 12.1266 2.98665 10.6666 2.98665ZM10.6666 5.18864C11.5426 5.18864 12.3828 5.53663 13.0022 6.15606C13.6216 6.77549 13.9696 7.61562 13.9696 8.49162C13.9696 9.36763 13.6216 10.2078 13.0022 10.8272C12.3828 11.4466 11.5426 11.7946 10.6666 11.7946C9.79062 11.7946 8.95049 11.4466 8.33106 10.8272C7.71163 10.2078 7.36364 9.36763 7.36364 8.49162C7.36364 7.61562 7.71163 6.77549 8.33106 6.15606C8.95049 5.53663 9.79062 5.18864 10.6666 5.18864ZM10.6666 7.39063C10.3746 7.39063 10.0946 7.50663 9.8881 7.7131C9.68162 7.91958 9.56563 8.19962 9.56563 8.49162C9.56563 8.78362 9.68162 9.06367 9.8881 9.27014C10.0946 9.47662 10.3746 9.59262 10.6666 9.59262C10.9586 9.59262 11.2387 9.47662 11.4451 9.27014C11.6516 9.06367 11.7676 8.78362 11.7676 8.49162C11.7676 8.19962 11.6516 7.91958 11.4451 7.7131C11.2387 7.50663 10.9586 7.39063 10.6666 7.39063Z" fill="white"/>
</svg>
