<svg width="28" height="32" viewBox="0 0 28 32" fill="none" xmlns="http://www.w3.org/2000/svg">
<path d="M23.5626 12.7565V11.7577C23.5626 6.27665 19.2786 1.83398 14.0001 1.83398C8.72159 1.83398 4.43759 6.27665 4.43759 11.7577V12.7565C4.43929 13.9487 4.09907 15.1164 3.45725 16.1211L1.88759 18.5648C0.455338 20.7961 1.549 23.8292 4.04092 24.5347C10.5523 26.3787 17.4478 26.3787 23.9593 24.5347C26.4512 23.8292 27.5448 20.7961 26.1126 18.5662L24.5429 16.1225C23.9006 15.1179 23.5599 13.9502 23.5612 12.7579L23.5626 12.7565Z" stroke="#61A0FF" stroke-width="2"/>
<path opacity="0.5" d="M7.625 25.918C8.55292 28.3943 11.0562 30.168 14 30.168C16.9438 30.168 19.4471 28.3943 20.375 25.918" stroke="#61A0FF" stroke-width="2" stroke-linecap="round"/>
</svg>
