<svg width="16" height="15" viewBox="0 0 16 15" fill="none" xmlns="http://www.w3.org/2000/svg">
<path d="M1.3335 9.84863C1.3335 7.9633 1.3335 7.01997 1.9195 6.43463C2.50483 5.84863 3.44816 5.84863 5.3335 5.84863H10.6668C12.5522 5.84863 13.4955 5.84863 14.0808 6.43463C14.6668 7.01997 14.6668 7.9633 14.6668 9.84863C14.6668 11.734 14.6668 12.6773 14.0808 13.2626C13.4955 13.8486 12.5522 13.8486 10.6668 13.8486H5.3335C3.44816 13.8486 2.50483 13.8486 1.9195 13.2626C1.3335 12.6773 1.3335 11.734 1.3335 9.84863Z" stroke="#61A0FF"/>
<path d="M4 5.84847V4.51514C4 3.45427 4.42143 2.43686 5.17157 1.68671C5.92172 0.936564 6.93913 0.515137 8 0.515137C9.06087 0.515137 10.0783 0.936564 10.8284 1.68671C11.5786 2.43686 12 3.45427 12 4.51514V5.84847" stroke="#61A0FF" stroke-linecap="round"/>
<path d="M5.3335 9.84863H5.3395M7.99416 9.84863H8.00016M10.6608 9.84863H10.6668" stroke="#61A0FF" stroke-width="1.33333" stroke-linecap="round" stroke-linejoin="round"/>
</svg>
