<svg width="27" height="27" viewBox="0 0 27 27" fill="none" xmlns="http://www.w3.org/2000/svg">
<path d="M1.8335 22.2503C1.8335 20.7032 2.44808 19.2195 3.54204 18.1255C4.636 17.0316 6.11973 16.417 7.66683 16.417H19.3335C20.8806 16.417 22.3643 17.0316 23.4583 18.1255C24.5522 19.2195 25.1668 20.7032 25.1668 22.2503C25.1668 23.0239 24.8595 23.7657 24.3126 24.3127C23.7656 24.8597 23.0237 25.167 22.2502 25.167H4.75016C3.97661 25.167 3.23475 24.8597 2.68777 24.3127C2.14079 23.7657 1.8335 23.0239 1.8335 22.2503Z" stroke="#666666" stroke-opacity="0.5" stroke-width="2.1875" stroke-linejoin="round"/>
<path d="M13.5 10.5835C15.9162 10.5835 17.875 8.62474 17.875 6.2085C17.875 3.79225 15.9162 1.8335 13.5 1.8335C11.0838 1.8335 9.125 3.79225 9.125 6.2085C9.125 8.62474 11.0838 10.5835 13.5 10.5835Z" stroke="#666666" stroke-opacity="0.5" stroke-width="2.1875"/>
</svg>
