<svg width="40" height="40" viewBox="0 0 40 40" fill="none" xmlns="http://www.w3.org/2000/svg">
<path d="M36.6667 25C36.6667 31.45 31.45 36.6667 25 36.6667L26.75 33.75" stroke="white" stroke-width="1.5" stroke-linecap="round" stroke-linejoin="round"/>
<path d="M3.33301 14.9999C3.33301 8.54992 8.54967 3.33325 14.9997 3.33325L13.2497 6.24992" stroke="white" stroke-width="1.5" stroke-linecap="round" stroke-linejoin="round"/>
<path d="M17.2388 18.9014C17.1416 18.8917 17.0249 18.8917 16.918 18.9014C14.6041 18.8237 12.7666 16.9278 12.7666 14.5945C12.7666 12.2126 14.6916 10.2778 17.0833 10.2778C19.4652 10.2778 21.3999 12.2126 21.3999 14.5945C21.3902 16.9278 19.5527 18.8237 17.2388 18.9014Z" stroke="white" stroke-width="1.5" stroke-linecap="round" stroke-linejoin="round"/>
<path d="M24.2875 12.2222C26.1736 12.2222 27.6903 13.7486 27.6903 15.6249C27.6903 17.4624 26.232 18.9597 24.4139 19.0277C24.3361 19.018 24.2486 19.018 24.1611 19.0277" stroke="white" stroke-width="1.5" stroke-linecap="round" stroke-linejoin="round"/>
<path d="M12.3779 22.4889C10.0251 24.0639 10.0251 26.6306 12.3779 28.1959C15.0515 29.9847 19.4362 29.9847 22.1098 28.1959C24.4626 26.6209 24.4626 24.0542 22.1098 22.4889C19.4459 20.7097 15.0612 20.7097 12.3779 22.4889Z" stroke="white" stroke-width="1.5" stroke-linecap="round" stroke-linejoin="round"/>
<path d="M26.1641 27.7777C26.8641 27.6318 27.5252 27.3499 28.0696 26.9318C29.5863 25.7943 29.5863 23.9179 28.0696 22.7804C27.5349 22.3721 26.8835 22.0999 26.1932 21.9443" stroke="white" stroke-width="1.5" stroke-linecap="round" stroke-linejoin="round"/>
</svg>
