<svg width="27" height="30" viewBox="0 0 27 30" fill="none" xmlns="http://www.w3.org/2000/svg">
<path d="M5.33318 4.94146C7.50656 2.81155 10.4327 1.6254 13.4757 1.64077C16.5187 1.65614 19.4327 2.87179 21.5844 5.02354C23.7362 7.1753 24.9518 10.0893 24.9672 13.1323C24.9826 16.1753 23.7964 19.1014 21.6665 21.2748L15.5619 27.3794C15.015 27.9262 14.2732 28.2333 13.4999 28.2333C12.7265 28.2333 11.9847 27.9262 11.4378 27.3794L5.33318 21.2748C3.16739 19.1088 1.95068 16.1712 1.95068 13.1081C1.95068 10.0451 3.16739 7.10747 5.33318 4.94146Z" stroke="#666666" stroke-opacity="0.5" stroke-width="2.1875" stroke-linejoin="round"/>
<path d="M13.5 17.4829C15.9162 17.4829 17.875 15.5242 17.875 13.1079C17.875 10.6917 15.9162 8.73291 13.5 8.73291C11.0838 8.73291 9.125 10.6917 9.125 13.1079C9.125 15.5242 11.0838 17.4829 13.5 17.4829Z" stroke="#666666" stroke-opacity="0.5" stroke-width="2.1875" stroke-linecap="round" stroke-linejoin="round"/>
</svg>
